HIERARCHY
ROOT Model_Hips
{
	OFFSET 0.000000 96.915077 0.000000
	CHANNELS 6 Xposition Yposition Zposition Xrotation Yrotation Zrotation
	JOINT Model_Spine
	{
		OFFSET 0.000000 11.137703 -1.289900
		CHANNELS 3 Xrotation Yrotation Zrotation
		JOINT Model_Spine1
		{
			OFFSET 0.000000 12.993942 -1.504922
			CHANNELS 3 Xrotation Yrotation Zrotation
			JOINT Model_Spine2
			{
				OFFSET 0.000000 14.850220 -1.719911
				CHANNELS 3 Xrotation Yrotation Zrotation
				JOINT Model_Neck
				{
					OFFSET 0.000000 16.706543 -1.934903
					CHANNELS 3 Xrotation Yrotation Zrotation
					JOINT Model_Head
					{
						OFFSET 0.000000 10.471298 2.002100
						CHANNELS 3 Xrotation Yrotation Zrotation
						JOINT Model_HeadTop_End
						{
							OFFSET 0.000000 20.842606 3.985100
							CHANNELS 3 Xrotation Yrotation Zrotation
							End Site
							{
								OFFSET 0.000000 21.220154 0.000000
							}
						}
					}
				}
				JOINT Model_LeftShoulder
				{
					OFFSET 7.008500 14.768600 -1.919946
					CHANNELS 3 Xrotation Yrotation Zrotation
					JOINT Model_LeftArm
					{
						OFFSET 14.126271 -3.718048 0.029937
						CHANNELS 3 Xrotation Yrotation Zrotation
						JOINT Model_LeftForeArm
						{
							OFFSET 28.282801 0.000000 0.000000
							CHANNELS 3 Xrotation Yrotation Zrotation
							JOINT Model_LeftHand
							{
								OFFSET 26.204689 0.000000 0.000000
								CHANNELS 3 Xrotation Yrotation Zrotation
								End Site
								{
									OFFSET 26.204704 0.000000 0.000000
								}
							}
						}
					}
				}
				JOINT Model_RightShoulder
				{
					OFFSET -7.008500 14.768555 -1.949840
					CHANNELS 3 Xrotation Yrotation Zrotation
					JOINT Model_RightArm
					{
						OFFSET -14.126281 -3.718018 -0.029932
						CHANNELS 3 Xrotation Yrotation Zrotation
						JOINT Model_RightForeArm
						{
							OFFSET -28.283798 0.000000 -0.000001
							CHANNELS 3 Xrotation Yrotation Zrotation
							JOINT Model_RightHand
							{
								OFFSET -26.204193 0.000000 -0.000001
								CHANNELS 3 Xrotation Yrotation Zrotation
								End Site
								{
									OFFSET -26.204208 0.000000 -0.000001
								}
							}
						}
					}
				}
			}
		}
	}
	JOINT Model_LeftUpLeg
	{
		OFFSET 8.327700 -6.193199 -0.402800
		CHANNELS 3 Xrotation Yrotation Zrotation
		JOINT Model_LeftLeg
		{
			OFFSET 0.735802 -42.108742 -0.610721
			CHANNELS 3 Xrotation Yrotation Zrotation
			JOINT Model_LeftFoot
			{
				OFFSET -0.735806 -36.833748 -0.172876
				CHANNELS 3 Xrotation Yrotation Zrotation
				JOINT Model_LeftToeBase
				{
					OFFSET -0.565857 -11.977769 16.297714
					CHANNELS 3 Xrotation Yrotation Zrotation
					JOINT Model_LeftToe_End
					{
						OFFSET -0.111712 -0.312793 7.857784
						CHANNELS 3 Xrotation Yrotation Zrotation
						End Site
						{
							OFFSET -0.111712 -0.312793 7.857784
						}
					}
				}
			}
		}
	}
	JOINT Model_RightUpLeg
	{
		OFFSET -8.327700 -6.193199 -0.516500
		CHANNELS 3 Xrotation Yrotation Zrotation
		JOINT Model_RightLeg
		{
			OFFSET -0.735785 -42.108738 -0.434061
			CHANNELS 3 Xrotation Yrotation Zrotation
			JOINT Model_RightFoot
			{
				OFFSET 0.735776 -36.833748 -0.021630
				CHANNELS 3 Xrotation Yrotation Zrotation
				JOINT Model_RightToeBase
				{
					OFFSET 0.565817 -11.977745 15.903093
					CHANNELS 3 Xrotation Yrotation Zrotation
					JOINT Model_RightToe_End
					{
						OFFSET 0.111702 -0.312791 7.811342
						CHANNELS 3 Xrotation Yrotation Zrotation
						End Site
						{
							OFFSET 0.111702 -0.312791 7.811342
						}
					}
				}
			}
		}
	}
}
MOTION
Frames: 6
Frame Time: 0.016667
5.389448 95.685806 -203.237671 -2.709448 5.061270 -0.118971 8.659666 -0.383454 0.996790 0.991847 -0.144506 0.449813 0.991469 -0.152926 0.452618 -1.459452 -0.689609 0.373919 -1.457915 -0.687128 0.382051 -0.000000 0.000000 -0.000000 0.346447 -6.638959 -18.016074 -2.262711 -13.076604 -61.110201 -0.000016 -9.108529 0.000003 -0.000000 -0.000001 0.000001 1.485895 2.450043 15.679831 -4.031491 8.213730 61.853695 -0.000002 12.244495 0.000019 -0.000000 0.000000 0.000000 -7.449416 5.117180 -3.643461 24.109465 -4.472408 2.001423 -13.733474 -0.455877 3.963679 -1.004289 0.000005 -0.000001 0.000000 0.000000 -0.000000 -25.979518 -11.383139 -10.853914 61.287779 -1.660498 0.764824 -4.563439 -0.797917 7.592169 -5.451246 0.043756 -1.650822 0.000001 -0.000000 -0.000000 
5.406034 95.639786 -204.627518 -2.921875 4.890138 0.003712 8.386008 0.072357 0.922006 0.955089 -0.018254 0.424498 0.955271 -0.026323 0.425808 -1.432269 -0.736560 0.336842 -1.431026 -0.734422 0.344578 -0.000000 -0.000000 -0.000000 0.366552 -6.370529 -18.023218 -0.283406 -11.378490 -60.992292 -0.000005 -7.904695 0.000003 -0.000001 -0.000000 -0.000001 1.476002 2.559119 15.655907 -4.495226 9.329168 62.196235 -0.000000 13.459835 -0.000001 0.000001 -0.000002 0.000001 -8.366691 4.904563 -3.948217 24.366618 -3.917263 2.114155 -12.849256 -0.425342 3.887909 -0.664803 0.000001 0.000001 0.000000 -0.000000 -0.000000 -23.505698 -11.549618 -11.245013 63.007573 0.356408 0.780056 -4.421805 -0.792187 7.547652 -8.188914 0.130268 -1.743710 -0.000002 -0.000002 -0.000000 
5.410661 95.521988 -206.022903 -3.159775 4.719964 0.181782 8.135928 0.570024 0.788069 0.928779 0.121803 0.395938 0.929556 0.113886 0.395721 -1.395831 -0.788182 0.292485 -1.394744 -0.786626 0.299813 0.000000 -0.000000 0.000000 0.381457 -6.154117 -18.082537 1.691145 -9.463021 -60.885078 -0.000001 -6.869974 -0.000009 -0.000000 0.000000 0.000001 1.468626 2.633647 15.583293 -4.937382 10.510655 62.534903 0.000011 14.735971 0.000017 -0.000000 -0.000000 -0.000001 -9.390047 4.681835 -4.296206 24.885501 -3.307179 2.225153 -12.086916 -0.400214 3.808368 -0.381375 0.000002 -0.000001 0.000000 0.000000 0.000000 -20.703077 -11.728290 -11.634619 63.877500 2.196228 0.765393 -3.756054 -0.772702 7.840623 -11.509950 0.284606 -2.110578 -0.000001 -0.000000 -0.000001 
5.395613 95.331779 -207.435623 -3.410844 4.583748 0.384931 7.916188 1.109412 0.609792 0.914798 0.275451 0.374617 0.916236 0.267250 0.372846 -1.357930 -0.845489 0.237164 -1.356855 -0.844834 0.244088 0.000000 0.000000 -0.000000 0.390664 -5.997574 -18.197436 3.664546 -7.363424 -60.816804 0.000003 -6.037096 0.000010 -0.000001 0.000000 0.000000 1.465934 2.646950 15.450375 -5.335368 11.762796 62.829899 0.000008 16.088304 -0.000008 -0.000002 -0.000002 -0.000000 -10.563724 4.475926 -4.641396 25.727087 -2.737157 2.316934 -11.518189 -0.376714 3.750729 -0.611710 0.000002 -0.000000 0.000000 0.000000 -0.000000 -17.590614 -11.999051 -11.958549 63.835768 3.814159 0.731959 -2.381704 -0.688791 8.126186 -16.015409 0.528941 -2.458494 0.000000 0.000000 -0.000000 
5.351293 95.088257 -208.873123 -3.646469 4.491661 0.580696 7.716908 1.657381 0.410963 0.908467 0.432892 0.359034 0.910651 0.424108 0.355709 -1.324854 -0.906533 0.182108 -1.323606 -0.906889 0.188665 0.000000 0.000000 -0.000000 0.400733 -5.840789 -18.289983 5.617231 -5.142067 -60.838756 -0.000009 -5.386938 0.000005 -0.000000 -0.000000 0.000000 1.465644 2.629214 15.295587 -5.662625 13.085901 63.056805 0.000015 17.521827 -0.000006 0.000002 0.000003 -0.000001 -11.862013 4.298499 -4.941622 26.748139 -2.272748 2.381971 -11.030233 -0.362476 3.713525 -0.758423 -0.000000 -0.000001 0.000000 0.000000 -0.000000 -14.237132 -12.375232 -12.147110 62.920809 5.233829 0.688503 -0.505706 -0.558422 8.472655 -21.255887 0.883840 -2.855493 0.000005 0.000000 0.000000 
5.269111 94.818375 -210.344040 -3.805346 4.428703 0.748340 7.489498 2.191788 0.208156 0.897144 0.587573 0.341687 0.900103 0.578223 0.336863 -1.295318 -0.969788 0.141261 -1.293807 -0.970999 0.147461 0.000000 0.000000 0.000000 0.417367 -5.634032 -18.270669 7.535285 -2.852734 -60.994887 -0.000003 -4.882854 0.000001 0.000000 0.000000 0.000000 1.463481 2.636436 15.159149 -5.894345 14.455672 63.223414 0.000001 19.036955 -0.000010 -0.000001 0.000000 -0.000000 -13.271482 4.144487 -5.173986 27.752527 -1.878206 2.422953 -10.491711 -0.347999 3.667907 -0.792990 0.000001 -0.000000 -0.000000 -0.000000 -0.000000 -10.794643 -12.798700 -12.135870 61.289466 6.450971 0.627261 1.330993 -0.428810 9.008182 -26.200150 1.377796 -3.422462 -0.000001 0.000001 -0.000000 
